<?xml version="1.0" encoding="utf-8"?>
<!-- Generator: Adobe Illustrator 27.2.0, SVG Export Plug-In . SVG Version: 6.00 Build 0)  -->
<svg version="1.1" id="레이어_1" xmlns="http://www.w3.org/2000/svg" xmlns:xlink="http://www.w3.org/1999/xlink" x="0px"
	 y="0px" viewBox="0 0 60 60" style="enable-background:new 0 0 60 60;" xml:space="preserve">
<style type="text/css">
	.st0{fill:none;}
	.st1{fill-rule:evenodd;clip-rule:evenodd;}
</style>
<path class="st0" d="M-2-2h64v64H-2V-2z"/>
<path class="st1" d="M32,12v2c0,1.8-2.9,2.8-3.8,0.8C28.1,14.6,28,14.3,28,14v-2h-6c-1.5-0.1-2.6-2.1-1.5-3.3C20.9,8.3,21.2,8,22,8
	c2,0,4,0,6,0V6c0-0.2,0-0.4,0.1-0.6C28.4,4.6,29.2,4,30,4c1.1,0,1.9,0.8,2,2v2c4,0,8,0,12,0V6c0-1.1,0.8-2,2-2H46c1.1,0,1.9,0.8,2,2
	v2l2.1,0c3.1,0.1,5.8,2.7,5.8,5.9C56,25.9,56,38,56,50c-0.1,3.1-2.7,5.9-5.9,5.9C36.7,56,23.3,56,10,55.9C6.9,55.9,4.1,53.3,4,50
	C4,38,4,25.9,4,13.9C4.1,10.8,6.8,8,10,8h2V6c0-0.2,0-0.4,0.1-0.6C12.4,4.6,13.2,4,14.1,4c1.1,0,1.9,0.8,2,2v8
	c0,1.8-2.8,2.8-3.8,0.9C12.1,14.6,12,14.3,12,14v-2c-0.7,0-1.4,0-2,0c-1,0-1.9,0.9-1.9,1.9C7.8,26,7.8,38,8,50c0,1,0.9,1.9,1.9,1.9
	c13.3,0.2,26.7,0.2,40,0c1,0,1.9-0.9,1.9-1.9c0.2-12,0.2-24,0-36.1C51.9,12.9,51,12,50,12h-2v2c0,1.8-2.8,2.7-3.8,0.9
	C44.1,14.6,44,14.3,44,14v-2C44,12,32,12,32,12z M14,44c1.1,0,2,0.8,2.1,1.9s-0.8,2-1.9,2.1c0,0-0.1,0-0.1,0c-1.1,0-2-1-1.9-2.1
	C12.1,44.8,13,44,14,44z M22,44c1.1,0,2,0.8,2.1,1.9c0,1.1-0.8,2-1.9,2.1c-0.1,0-0.1,0-0.2,0c-1.1-0.1-2-1-1.9-2.1
	C20.1,44.8,21,44,22,44z M30,44c1.1,0,2,1,1.9,2.1c0,1-0.9,1.9-1.9,1.9c-1.1,0-2-1-1.9-2.1C28.1,44.8,29,44,30,44z M14,36
	c1.1,0,2,0.8,2.1,1.9c0,1.1-0.8,2-1.9,2.1c0,0-0.1,0-0.1,0c-1.1,0-2-1-1.9-2.1C12.1,36.8,13,36,14,36z M22,36c1.1,0,2,0.9,2,2
	c0,1.1-0.9,2-2,2c-1.1,0-2-0.9-2-2C20,36.9,20.9,36,22,36z M30,36c1.1,0,2,0.8,2.1,1.9c0,1.1-0.8,2-1.9,2.1c0,0-0.1,0-0.1,0
	c-1.1,0-2-1-1.9-2.1C28.1,36.8,28.9,36,30,36z M38,36c1.1,0,2,0.8,2.1,1.9c0,1.1-0.8,2-1.9,2.1c0,0-0.1,0-0.1,0c-1.1,0-2-1-1.9-2.1
	C36.1,36.8,36.9,36,38,36z M46,36c1.1,0,2,0.8,2.1,1.9c0,1.1-0.8,2-1.9,2.1c0,0-0.1,0-0.1,0c-1.1,0-2-1-1.9-2.1
	C44.1,36.8,44.9,36,46,36z M22,28c1.1,0,2,0.9,2,2c0,1.1-0.9,2-2,2c0,0,0,0,0,0c-1.1,0-2-0.9-2-2C20,28.9,20.9,28,22,28z M30,28
	c1.1,0,2,0.8,2.1,1.9c0,1.1-0.8,2-1.9,2.1c-0.1,0-0.1,0-0.2,0c-1.1,0-2-1-1.9-2.1C28.1,28.8,29,28,30,28z M38,28
	c1.1,0,2,0.8,2.1,1.9c0,1.1-0.8,2-1.9,2.1c-0.1,0-0.1,0-0.2,0c-1.1,0-2-1-1.9-2.1C36.1,28.8,37,28,38,28z M46,28c1.1,0,2,0.9,2,2
	s-0.9,2-2,2l0,0c-1.1,0-2-0.9-2-2C44,28.9,44.9,28,46,28z"/>
</svg>
