<svg xmlns="http://www.w3.org/2000/svg" width="24" height="24" viewBox="0 0 6.35 6.35"><path fill-rule="evenodd" d="M12.004.998A4.019 4.019 0 0 0 8.002 5c0 .94.343 1.795.893 2.48a5.008 5.008 0 0 0-2.811 3.637c-1.76.419-3.088 2.003-3.088 3.885 0 .941.345 1.798.897 2.484C2.19 18.286.996 20.003.996 22c.029 1.304 1.971 1.304 2 0a2.975 2.975 0 0 1 3.006-2.998h2A2.967 2.967 0 0 1 10.998 22c0 1.335 2.002 1.335 2.002 0a2.967 2.967 0 0 1 2.996-2.998h2A2.975 2.975 0 0 1 21.002 22c0 1.334 2 1.334 2 0 0-1.997-1.194-3.714-2.897-4.514a3.955 3.955 0 0 0 .897-2.484c0-1.882-1.328-3.466-3.088-3.885a5.007 5.007 0 0 0-2.809-3.635A3.96 3.96 0 0 0 15.996 5c0-2.197-1.795-4.002-3.992-4.002zm0 2c1.116 0 2 .886 2 2.002 0 1.116-.884 2-2 2a1.987 1.987 0 0 1-2.002-2c0-1.116.885-2.002 2.002-2.002zM10.998 9H13c1.394 0 2.526.914 2.875 2.184-1.652.492-2.875 2.014-2.875 3.818 0 .94.342 1.797.893 2.482-.75.357-1.4.889-1.893 1.55a5.079 5.079 0 0 0-1.895-1.552c.55-.685.893-1.54.893-2.48 0-1.804-1.222-3.325-2.873-3.818A2.95 2.95 0 0 1 10.998 9Zm-4 4.002c1.116 0 2 .884 2 2s-.884 2-2 2-2-.884-2-2 .884-2 2-2zm10.002 0c1.116 0 2.002.884 2.002 2s-.886 2-2.002 2c-1.116 0-2-.884-2-2s.884-2 2-2z" color="#000" font-family="sans-serif" font-weight="400" overflow="visible" paint-order="stroke fill markers" transform="scale(.26458)" style="line-height:normal;font-variant-ligatures:normal;font-variant-position:normal;font-variant-caps:normal;font-variant-numeric:normal;font-variant-alternates:normal;font-feature-settings:normal;text-indent:0;text-align:start;text-decoration-line:none;text-decoration-style:solid;text-decoration-color:#000;text-transform:none;text-orientation:mixed;shape-padding:0;isolation:auto;mix-blend-mode:normal"/></svg>