<?xml version="1.0" encoding="utf-8"?>
<!-- Generator: Adobe Illustrator 27.2.0, SVG Export Plug-In . SVG Version: 6.00 Build 0)  -->
<svg version="1.1" id="레이어_1" xmlns="http://www.w3.org/2000/svg" xmlns:xlink="http://www.w3.org/1999/xlink" x="0px"
	 y="0px" viewBox="0 0 2500 2442" style="enable-background:new 0 0 2500 2442;" xml:space="preserve">
<style type="text/css">
	.st0{fill:#FFFFFF;}
</style>
<g>
	<path class="st0" d="M2356.1,1839.6c-0.3-436.4-0.8-872.8,0.5-1309.5c-1.8-42.8,1.2-90-24.7-127.3c-37-25.4-83.8-22.4-126.3-24.1
		c-251.8,1.3-503.6,0.8-755.3,0.8V178.2h-149.4C915.1,246.4,529,312.5,142.9,379.7v1760.5c383.8,67.2,767.9,131.5,1151.3,201.2
		h156.2V2115c260.9-0.5,521.7,0.7,782.3,0c42-1.8,104.9-3,115-55.3C2362.9,1987.5,2354.9,1912.8,2356.1,1839.6z M883.6,1653.4
		c-42.8-104.9-94.8-206.3-125.5-315.9c-34.2,102.1-83,198.5-122.2,298.6c-55.1-0.8-110.2-3-165.3-5.3
		c64.6-126.5,127-254,193.7-379.8c-56.6-129.6-118.7-256.6-177.1-385.4c55.3-3.3,110.7-6.5,166-9.6
		c37.5,98.4,78.5,195.4,109.4,296.3c33.2-106.9,82.7-207.5,125.3-310.9h0c56.8-4,114-7.5,171-10.3
		c-67.1,137.7-134.7,275.1-203,412.3c69.2,140.9,139.8,280.7,209.3,421.6C1004.7,1661.5,944.1,1657.7,883.6,1653.4z M2280.4,2039.5
		h-830.1v-150.9h201.2v-176.1h-201.2v-100.6h201.2v-176.1h-201.2v-100.6h201.2v-176.1h-201.2v-100.6h201.2V882.5h-201.2V781.9h201.2
		V605.8h-201.2V454.9h830.1V2039.5z"/>
	<rect x="1752.2" y="605.8" class="st0" width="352.1" height="176.1"/>
	<rect x="1752.2" y="1712.6" class="st0" width="352.1" height="176.1"/>
	<rect x="1752.2" y="882.5" class="st0" width="352.1" height="176.1"/>
	<rect x="1752.2" y="1435.9" class="st0" width="352.1" height="176.1"/>
	<rect x="1752.2" y="1159.2" class="st0" width="352.1" height="176.1"/>
</g>
</svg>
