<?xml version="1.0" encoding="utf-8"?>
<!-- Generator: Adobe Illustrator 26.5.0, SVG Export Plug-In . SVG Version: 6.00 Build 0)  -->
<svg version="1.1" id="레이어_1" xmlns="http://www.w3.org/2000/svg" xmlns:xlink="http://www.w3.org/1999/xlink" x="0px"
	 y="0px" viewBox="0 0 60 60" style="enable-background:new 0 0 60 60;" xml:space="preserve">
<path d="M30.1,13.8c0.8,0,2.9,0.5,2.9,0.5c5.4,1.2,9.3,6.3,9.3,11.9v15.3l1.1,1.1l0.9,0.9H15.7l0.9-0.9l1.1-1.1V26.3
	c0-5.7,3.8-10.7,9.3-11.9c0,0,2.2-0.5,2.9-0.5 M30,5.1c-2.1,0-3.7,1.6-3.7,3.7v1.7c-7.1,1.6-12.4,8.1-12.4,15.7v13.7l-4.9,5v2.5H51
	v-2.5l-4.9-5V26.3c0-7.6-5.3-14-12.4-15.7V8.9C33.7,6.8,32.1,5.1,30,5.1L30,5.1z M34.9,49.9h-9.9c0,2.7,2.2,5,4.9,5
	S34.9,52.6,34.9,49.9z"/>
</svg>
