<?xml version="1.0" encoding="utf-8"?>
<!-- Generator: Adobe Illustrator 27.2.0, SVG Export Plug-In . SVG Version: 6.00 Build 0)  -->
<svg version="1.1" id="레이어_1" xmlns="http://www.w3.org/2000/svg" xmlns:xlink="http://www.w3.org/1999/xlink" x="0px"
	 y="0px" viewBox="0 0 90 90" style="enable-background:new 0 0 90 90;" xml:space="preserve">
<style type="text/css">
	.st0{fill:#FFFFFF;stroke:#FFFFFF;stroke-miterlimit:10;}
</style>
<path class="st0" d="M33.3,34.4h8.1c1.1,0,2-0.9,2-2c0-1.1-0.9-2-2-2h-8.1c-1.1,0-2,0.9-2,2C31.3,33.5,32.2,34.4,33.3,34.4z
	 M79.9,31.6c-0.1-0.2-0.2-0.4-0.4-0.7L55,6.6c-0.2-0.2-0.4-0.3-0.7-0.4C54.1,6,53.8,6,53.6,6H27.2C20.5,6,15,11.5,15,18.2v57
	c0,6.7,5.5,12.2,12.2,12.2h40.6c6.7,0,12.2-5.5,12.2-12.2V32.4C80,32.1,80,31.8,79.9,31.6z M55.6,12.8l17.5,17.5h-12
	c-3,0-5.4-2.5-5.4-5.4V12.8H55.6z M76,75.1c0,4.5-3.6,8.1-8.1,8.1H27.2c-4.5,0-8.1-3.6-8.1-8.1v-57c0-4.5,3.6-8.1,8.1-8.1h24.4V25
	c0,5.3,4.3,9.5,9.5,9.5h14.9v40.6H76z M31.3,48.6c0,1.1,0.9,2,2,2h28.5c1.1,0,2-0.9,2-2s-0.9-2-2-2H33.3
	C32.2,46.6,31.3,47.5,31.3,48.6z M61.8,62.8H33.3c-1.1,0-2,0.9-2,2c0,1.1,0.9,2,2,2h28.5c1.1,0,2-0.9,2-2
	C63.8,63.7,62.9,62.8,61.8,62.8z"/>
</svg>
