<?xml version="1.0" encoding="utf-8"?>
<!-- Generator: Adobe Illustrator 27.2.0, SVG Export Plug-In . SVG Version: 6.00 Build 0)  -->
<svg version="1.1" id="레이어_1" xmlns="http://www.w3.org/2000/svg" xmlns:xlink="http://www.w3.org/1999/xlink" x="0px"
	 y="0px" viewBox="0 0 90 90" style="enable-background:new 0 0 90 90;" xml:space="preserve">
<style type="text/css">
	.st0{fill:#FFFFFF;stroke:#FFFFFF;stroke-miterlimit:10;}
</style>
<path class="st0" d="M81.9,30.1L57.3,5.6C57,5.2,56.4,5,55.8,5H37.4c-6.8,0-12.2,5.5-12.2,12.2v4.1H21c-6.8,0-12.2,5.5-12.2,12.2
	v40.9c0,6.8,5.5,12.2,12.2,12.2h32.7c6.8,0,12.2-5.5,12.2-12.2v-4.1h4.1c6.8,0,12.2-5.5,12.2-12.2V31.6C82.5,31,82.3,30.5,81.9,30.1
	z M57.9,12l17.5,17.5h-12c-3,0-5.5-2.4-5.5-5.5V12z M62,74.5c0,4.5-3.7,8.1-8.1,8.2H21c-4.5,0-8.1-3.7-8.1-8.2V33.6
	c0-4.5,3.7-8.1,8.1-8.2h4.1v32.7c0,6.8,5.5,12.2,12.2,12.2H62V74.5z M78.4,58.1c0,4.5-3.7,8.1-8.2,8.2H37.4c-4.5,0-8.1-3.7-8.1-8.2
	V17.2c0-4.5,3.7-8.1,8.1-8.2h16.4v15c0,5.3,4.2,9.5,9.5,9.5h15v24.6H78.4z"/>
</svg>
