<?xml version="1.0" encoding="utf-8"?>
<!-- Generator: Adobe Illustrator 27.2.0, SVG Export Plug-In . SVG Version: 6.00 Build 0)  -->
<svg version="1.1" id="레이어_1" xmlns="http://www.w3.org/2000/svg" xmlns:xlink="http://www.w3.org/1999/xlink" x="0px"
	 y="0px" viewBox="0 0 90 90" style="enable-background:new 0 0 90 90;" xml:space="preserve">
<style type="text/css">
	.st0{fill:#FFFFFF;stroke:#FFFFFF;stroke-miterlimit:10;}
</style>
<path class="st0" d="M55.5,4L55.5,4c-1.2,0-2,0.8-2,2v28.4c0,1.2,0.8,2,2,2H84c1.2,0,2-0.8,2-2l0,0C86,17.8,72.2,4,55.5,4z
	 M57.6,32.4V8c13,0.8,23.2,11.4,24.4,24.4H57.6z M75.9,46.7H43.3V14.1c0-1.2-0.8-2-2-2c-20.4,0-36.6,16.2-36.6,36.6
	s16.2,36.6,36.6,36.6s36.6-16.2,36.6-36.6l0,0C77.9,47.5,77,46.7,75.9,46.7z M43.3,81.3C25.4,82.5,10,68.6,8.7,50.7
	s12.7-33.4,30.6-34.6v32.6c0,1.2,0.8,2,2,2h32.6C72.6,67,59.6,80,43.3,81.3z"/>
</svg>
