<?xml version="1.0" encoding="utf-8"?>
<!-- Generator: Adobe Illustrator 27.2.0, SVG Export Plug-In . SVG Version: 6.00 Build 0)  -->
<svg version="1.1" id="레이어_1" xmlns="http://www.w3.org/2000/svg" xmlns:xlink="http://www.w3.org/1999/xlink" x="0px"
	 y="0px" viewBox="0 0 90 90" style="enable-background:new 0 0 90 90;" xml:space="preserve">
<style type="text/css">
	.st0{fill:#FFFFFF;stroke:#FFFFFF;stroke-miterlimit:10;}
</style>
<path class="st0" d="M7.7,33.3V17.6c0-6,4.9-10.9,10.9-10.9h15.9v3.7H18.6c-4,0-7.2,3.2-7.2,7.2v15.9H7.7V33.3z M40.1,46.5
	c1.7,0,3-1.3,3-3V29.7h3.7v13.8c0,3.7-3,6.7-6.7,6.7h-3v-3.7H40.1L40.1,46.5z M44.9,68.5c-6.4,0-13.1-2.9-15.7-8.4l3.4-1.7
	c2,4.2,7.4,6.4,12.4,6.4s10.3-2,12.4-6.4l3.4,1.7C58,65.6,51.3,68.5,44.9,68.5L44.9,68.5z M62.7,29.7v7.2H59v-7.2
	C58.9,29.7,62.7,29.7,62.7,29.7z M31.1,29.7v7.2h-3.7v-7.2C27.3,29.7,31.1,29.7,31.1,29.7z M55.5,6.5h15.9c6,0,10.9,4.9,10.9,10.9
	v15.9h-3.7V17.6c0-4-3.2-7.2-7.2-7.2H55.5C55.5,10.4,55.5,6.5,55.5,6.5z M82.3,54.4v15.9c0,6-4.9,10.9-10.9,10.9H55.5v-3.7h15.9
	c4,0,7.2-3.2,7.2-7.2V54.4H82.3z M34.5,81.1H18.6c-6,0-10.9-4.9-10.9-10.9V54.4h3.7v15.9c0,4,3.2,7.2,7.2,7.2h15.9
	C34.5,77.4,34.5,81.1,34.5,81.1z"/>
</svg>
