<?xml version="1.0" encoding="utf-8"?>
<!-- Generator: Adobe Illustrator 27.2.0, SVG Export Plug-In . SVG Version: 6.00 Build 0)  -->
<svg version="1.1" id="레이어_1" xmlns="http://www.w3.org/2000/svg" xmlns:xlink="http://www.w3.org/1999/xlink" x="0px"
	 y="0px" viewBox="0 0 90 90" style="enable-background:new 0 0 90 90;" xml:space="preserve">
<style type="text/css">
	.st0{fill-rule:evenodd;clip-rule:evenodd;fill:none;stroke:#FFFFFF;stroke-width:5;stroke-miterlimit:10;}
</style>
<path class="st0" d="M45.1,10.2c-3.6,0-6.9,2-8.6,5.3l-1.5,3c-0.6,0.2-1.2,0.5-1.7,0.7l-3.2-1.1c-3.4-1.1-7.2-0.2-9.8,2.3
	c-2.5,2.5-3.4,6.3-2.2,9.7l1.1,3.2c-0.3,0.6-0.5,1.2-0.7,1.8l-3,1.5c-3.2,1.6-5.3,4.9-5.3,8.6c0,3.6,2.1,6.8,5.2,8.4l3,1.5
	c0.2,0.6,0.5,1.2,0.7,1.7l-1.1,3.2c-1.1,3.4-0.2,7.2,2.3,9.8c2.5,2.5,6.3,3.4,9.7,2.2l3.2-1.1c0.6,0.3,1.2,0.5,1.8,0.7l1.5,3
	c1.6,3.2,4.9,5.3,8.6,5.3c3.6,0,6.8-2.1,8.4-5.3l1.5-3c0.6-0.2,1.2-0.5,1.8-0.7l3.2,1.1c3.4,1.1,7.1,0.3,9.7-2.2
	c2.6-2.5,3.5-6.3,2.3-9.8l-1.1-3.2c0.3-0.6,0.5-1.2,0.7-1.7l3-1.5c3.2-1.6,5.2-4.8,5.3-8.4c0-3.6-2-6.9-5.3-8.6l-3-1.5
	c-0.2-0.6-0.5-1.2-0.7-1.8l1.1-3.2v0c1.1-3.4,0.3-7.1-2.2-9.7c-2.5-2.6-6.3-3.5-9.8-2.3l-3.2,1.1c-0.6-0.3-1.2-0.5-1.7-0.7l-1.5-3
	C51.9,12.3,48.6,10.2,45.1,10.2z M45,33.3c7.1,0,12.7,5.6,12.7,12.7c0,7.1-5.6,12.8-12.7,12.8S32.3,53.1,32.3,46
	C32.3,38.9,37.9,33.3,45,33.3z"/>
</svg>
