<?xml version="1.0" encoding="utf-8"?>
<!-- Generator: Adobe Illustrator 27.2.0, SVG Export Plug-In . SVG Version: 6.00 Build 0)  -->
<svg version="1.1" id="레이어_1" xmlns="http://www.w3.org/2000/svg" xmlns:xlink="http://www.w3.org/1999/xlink" x="0px"
	 y="0px" viewBox="0 0 90 90" style="enable-background:new 0 0 90 90;" xml:space="preserve">
<style type="text/css">
	.st0{fill:none;stroke:#FFFFFF;stroke-width:4;stroke-miterlimit:10;}
</style>
<g>
	<path class="st0" d="M66.1,49.5c-1.6,5.4-4.8,6.2-4.8,6.2s-0.4,4.8-1.2,6.2c-1.3,2.8-6.5,7.2-9.5,8.2c-0.4,0.1-2.3,0.7-4.3,0.7
		c-1.9,0-3.8-0.6-4.3-0.7c-3.1-0.9-8.1-5.4-9.5-8.2c-0.7-1.3-1.2-6.2-1.2-6.2s-3.4-0.7-4.8-6.2c-1.9-6.3,2.1-5.3,2.1-5.3
		s-3.7-12,5.1-20.1c4.7-4.4,10-4.8,12.6-4.8c2.6-0.1,7.9,0.4,12.6,4.8c8.8,8.1,5.1,20.1,5.1,20.1S68,43.1,66.1,49.5z M19,58.4h54.6
		 M70.6,11.2H80v9.4 M21.9,11.2h-9.4v9.4"/>
	<g>
		<path class="st0" d="M21.9,78.8h-9.4v-9.4 M70.6,78.8H80v-9.4"/>
	</g>
</g>
</svg>
