<?xml version="1.0" encoding="utf-8"?>
<!-- Generator: Adobe Illustrator 26.5.0, SVG Export Plug-In . SVG Version: 6.00 Build 0)  -->
<svg version="1.1" id="레이어_1" xmlns="http://www.w3.org/2000/svg" xmlns:xlink="http://www.w3.org/1999/xlink" x="0px"
	 y="0px" viewBox="0 0 60 60" style="enable-background:new 0 0 60 60;" xml:space="preserve">
<style type="text/css">
	.st0{opacity:0.3;}
	.st1{fill:#FFFFFF;}
</style>
<g class="st0">
	<path class="st1" d="M30,4C19.6,4,9.2,7.7,9.2,14.4v13.5c0,3.1,8,7.5,20.8,7.5s20.8-4.4,20.8-7.5V14.4C50.7,7.7,40.3,4,30,4z
		 M19.6,28.7c-1.6,0-2.6-1-2.6-2.6s1-2.6,2.6-2.6s2.6,1,2.6,2.6S21.1,28.7,19.6,28.7z M30,19.6c-9.6,0-15.6-3.4-15.6-5.2
		s6-5.2,15.6-5.2c9.6,0,15.6,3.4,15.6,5.2S39.6,19.6,30,19.6z"/>
</g>
<g>
	<path class="st1" d="M30,40.4c-7.3,0.3-14.5-1.3-20.8-4.9v10.1C9.2,52.3,19.6,56,30,56s20.8-3.6,20.8-10.4V35.5
		C44.5,39.1,37.2,40.6,30,40.4z M19.6,49.5c-1.6,0-2.6-1-2.6-2.6s1-2.6,2.6-2.6s2.6,1,2.6,2.6S21.1,49.5,19.6,49.5z"/>
</g>
</svg>
