<?xml version="1.0" encoding="utf-8"?>
<!-- Generator: Adobe Illustrator 26.5.0, SVG Export Plug-In . SVG Version: 6.00 Build 0)  -->
<svg version="1.1" id="레이어_1" xmlns="http://www.w3.org/2000/svg" xmlns:xlink="http://www.w3.org/1999/xlink" x="0px"
	 y="0px" viewBox="0 0 60 60" style="enable-background:new 0 0 60 60;" xml:space="preserve">
<style type="text/css">
	.st0{fill:#FF8C63;}
	.st1{fill:#FF6643;}
	.st2{fill:#FFC5B1;}
</style>
<g>
	<path class="st0" d="M46.5,26.1v-2c0-3.3-2.6-5.9-5.9-5.9H28.3l-0.6-1.9c-0.8-2.4-3.1-4-5.6-4h-7c-3.3,0-5.9,2.6-5.9,5.9v25.6
		c0,2.2,1.8,3.9,3.9,3.9h0.7c1.9,0,3.5-1.4,3.9-3.2l2.8-15.2c0.3-1.9,2-3.2,3.9-3.2H46.5z"/>
	<path class="st1" d="M13.8,48.7h-0.6c-2.7,0-4.9-2.2-4.9-4.9V18.2c0-3.8,3.1-6.9,6.9-6.9h7c3,0,5.6,1.9,6.5,4.7l0.4,1.2h11.6
		c3.8,0,6.9,3.1,6.9,6.9v2.9H24.3c-1.4,0-2.6,1-2.9,2.4l-2.8,15.2C18.2,47,16.2,48.7,13.8,48.7z M15.1,13.3c-2.7,0-4.9,2.2-4.9,4.9
		v25.6c0,1.6,1.3,2.9,2.9,2.9h0.6c1.4,0,2.6-1,2.9-2.4l2.8-15.2c0.4-2.3,2.5-4,4.8-4h21.3v-1c0-2.7-2.2-4.9-4.9-4.9H27.6l-0.8-2.5
		c-0.7-2-2.5-3.4-4.7-3.4H15.1z"/>
</g>
<g>
	<path class="st2" d="M50.6,26.1H24.3c-1.9,0-3.5,1.4-3.9,3.2l-2.8,15.2c-0.3,1.9-2,3.2-3.9,3.2h31.9c1.9,0,3.5-1.4,3.9-3.2
		l2.9-16.1c0.2-1.1-0.5-2.1-1.6-2.3C50.8,26.1,50.7,26.1,50.6,26.1z"/>
	<path class="st1" d="M45.7,48.7H13.8v-2c1.4,0,2.6-1,2.9-2.4l2.8-15.2c0.4-2.3,2.5-4,4.8-4h26.3c0.2,0,0.4,0,0.5,0
		c1.6,0.3,2.7,1.8,2.4,3.4l-2.9,16.1C50.1,47,48.1,48.7,45.7,48.7z M17.7,46.7h28c1.4,0,2.6-1,2.9-2.4l2.9-16.1
		c0.1-0.5-0.3-1-0.8-1.1l-0.2,0H24.3c-1.4,0-2.6,1-2.9,2.4l-2.8,15.2C18.5,45.4,18.2,46.1,17.7,46.7z"/>
</g>
</svg>
