<?xml version="1.0" encoding="utf-8"?>
<!-- Generator: Adobe Illustrator 26.5.0, SVG Export Plug-In . SVG Version: 6.00 Build 0)  -->
<svg version="1.1" id="레이어_1" xmlns="http://www.w3.org/2000/svg" xmlns:xlink="http://www.w3.org/1999/xlink" x="0px"
	 y="0px" viewBox="0 0 60 60" style="enable-background:new 0 0 60 60;" xml:space="preserve">
<style type="text/css">
	.st0{fill:#FF8C63;}
	.st1{fill:#FF6643;}
	.st2{fill:#FFFFFF;stroke:#FFFFFF;stroke-miterlimit:10;}
	.st3{font-family:'ArialMT';}
	.st4{font-size:22.276px;}
</style>
<g>
	<path class="st0" d="M43.5,48.5H16.3c-3.2,0-5.8-2.6-5.8-5.8V17.4c0-3.2,2.6-5.8,5.8-5.8h8.9c2.5,0,4.7,1.6,5.5,4l0.6,1.8h12.2
		c3.2,0,5.8,2.6,5.8,5.8v19.4C49.3,45.9,46.7,48.5,43.5,48.5z"/>
	<path class="st1" d="M43.5,49.4H16.3c-3.7,0-6.8-3.1-6.8-6.8V17.4c0-3.7,3.1-6.8,6.8-6.8h8.9l0,0c2.9,0,5.5,1.9,6.5,4.7l0.4,1.2
		h11.5c3.7,0,6.8,3.1,6.8,6.8v19.4C50.3,46.4,47.3,49.4,43.5,49.4z M16.3,12.5c-2.7,0-4.9,2.2-4.9,4.9v25.3c0,2.7,2.2,4.9,4.9,4.9
		h27.2c2.7,0,4.9-2.2,4.9-4.9V23.2c0-2.7-2.2-4.9-4.9-4.9H30.6l-0.8-2.5c-0.7-2-2.5-3.3-4.6-3.3l0,0C25.2,12.5,16.3,12.5,16.3,12.5z
		"/>
</g>
<text transform="matrix(1 0 0 1 22.9042 40.0614)" class="st2 st3 st4">+</text>
</svg>
